<svg className="appname-svg" viewBox="0 0 575 183" fill="none" xmlns="http://www.w3.org/2000/svg">
  <path d="M13.5516 141.4C5.15156 141.4 0.951563 140.133 0.951563 137.6C0.951563 136.4 1.61823 134.733 2.95156 132.6L44.1516 68L7.55156 9.39999C6.21823 7.13333 5.55156 5.46666 5.55156 4.39999C5.55156 3.19999 6.61823 2.26666 8.75156 1.59999C10.8849 0.933329 14.0849 0.599996 18.3516 0.599996H26.5516C33.0849 0.599996 37.0849 1.86666 38.5516 4.39999L61.3516 41.6L85.3516 4.39999C86.4182 2.79999 87.8849 1.79999 89.7516 1.4C91.6182 0.866663 94.2182 0.599996 97.5516 0.599996H105.352C113.752 0.599996 117.952 1.86666 117.952 4.39999C117.952 5.86666 117.285 7.53332 115.952 9.39999L78.1516 68.4L118.152 132.6C119.352 134.6 119.952 136.267 119.952 137.6C119.952 140.133 115.752 141.4 107.352 141.4H99.5516C93.0182 141.4 89.0182 140.133 87.5516 137.6L60.9516 94.6L33.3516 137.6C32.2849 139.2 30.8182 140.267 28.9516 140.8C27.2182 141.2 24.6182 141.4 21.1516 141.4H13.5516ZM147.617 182.2C139.617 182.2 135.617 180.067 135.617 175.8V71.6C135.617 65.7333 135.417 61.2667 135.017 58.2C134.751 55 134.351 51.4667 133.817 47.6C133.417 45.7333 133.217 44.3333 133.217 43.4C133.217 41.2667 135.884 39.6667 141.217 38.6C146.684 37.5333 151.484 37 155.617 37C158.017 37 159.684 37.9333 160.617 39.8C161.551 41.5333 162.217 43.4667 162.617 45.6C163.151 47.6 163.484 49 163.617 49.8C166.017 45.4 169.551 41.8 174.217 39C179.017 36.2 184.417 34.8 190.417 34.8C197.617 34.8 204.017 36.9333 209.617 41.2C215.351 45.3333 219.817 51.4667 223.017 59.6C226.217 67.7333 227.817 77.4667 227.817 88.8C227.817 105.333 224.084 118.467 216.617 128.2C209.284 137.8 198.951 142.6 185.617 142.6C177.751 142.6 170.951 140.533 165.217 136.4V175.8C165.217 180.067 161.217 182.2 153.217 182.2H147.617ZM179.217 119.2C191.617 119.2 197.817 109.067 197.817 88.8C197.817 68.9333 192.417 59 181.617 59C175.217 59 169.751 62.9333 165.217 70.8V115.4C169.751 117.933 174.417 119.2 179.217 119.2ZM260.666 141.4C252.666 141.4 248.666 139.267 248.666 135V71.6C248.666 65.7333 248.466 61.2667 248.066 58.2C247.799 55 247.399 51.4667 246.866 47.6C246.466 45.7333 246.266 44.3333 246.266 43.4C246.266 41.2667 248.932 39.6667 254.266 38.6C259.732 37.5333 264.532 37 268.666 37C271.066 37 272.732 37.9333 273.666 39.8C274.599 41.5333 275.266 43.4667 275.666 45.6C276.199 47.7333 276.532 49.2 276.666 50C279.199 45.3333 282.132 41.6667 285.466 39C288.932 36.2 293.266 34.8 298.466 34.8C302.999 34.8 305.999 35.7333 307.466 37.6C309.066 39.3333 309.866 42 309.866 45.6C309.866 48.4 309.266 51.9333 308.066 56.2C306.866 60.3333 305.399 62.4 303.666 62.4C302.866 62.4 301.466 62.1333 299.466 61.6C297.466 61.0667 295.732 60.8 294.266 60.8C290.666 60.8 287.466 61.8667 284.666 64C281.999 66 279.866 68.2667 278.266 70.8V135C278.266 139.267 274.266 141.4 266.266 141.4H260.666ZM366.202 142.6C348.602 142.6 335.468 137.933 326.802 128.6C318.268 119.133 314.002 106.067 314.002 89.4C314.002 70.6 318.268 56.8 326.802 48C335.468 39.2 347.402 34.8 362.602 34.8C377.402 34.8 388.268 39.6 395.202 49.2C402.268 58.8 405.802 71.2 405.802 86.4C405.802 88 404.402 90.4 401.602 93.6C398.935 96.6667 396.935 98.2 395.602 98.2H344.602C345.268 105.8 347.535 111.2 351.402 114.4C355.268 117.6 360.668 119.2 367.602 119.2C371.335 119.2 374.735 118.8 377.802 118C380.868 117.067 384.068 115.933 387.402 114.6C389.535 113.533 391.002 113 391.802 113C393.135 113 394.602 114 396.202 116C397.935 117.867 399.335 120.067 400.402 122.6C401.602 125 402.202 126.867 402.202 128.2C402.202 131.267 400.135 133.933 396.002 136.2C391.868 138.333 386.935 139.933 381.202 141C375.468 142.067 370.468 142.6 366.202 142.6ZM377.002 78.4C377.002 72.2667 375.802 67.4 373.402 63.8C371.002 60.0667 367.402 58.2 362.602 58.2C352.735 58.2 346.735 64.9333 344.602 78.4H377.002ZM452.214 142.6C443.947 142.6 436.347 141.333 429.414 138.8C422.481 136.267 419.014 133 419.014 129C419.014 126.333 420.281 123.133 422.814 119.4C425.347 115.533 427.614 113.6 429.614 113.6C430.681 113.6 432.147 114.133 434.014 115.2C436.814 116.4 439.347 117.4 441.614 118.2C444.014 118.867 446.747 119.2 449.814 119.2C453.814 119.2 456.814 118.467 458.814 117C460.947 115.533 462.014 113.467 462.014 110.8C462.014 108.133 460.881 106.067 458.614 104.6C456.347 103.133 452.081 101.067 445.814 98.4C441.147 96.4 437.147 94.4 433.814 92.4C430.481 90.2667 427.547 87.2 425.014 83.2C422.614 79.0667 421.414 73.8667 421.414 67.6C421.414 57.3333 424.681 49.3333 431.214 43.6C437.747 37.7333 446.614 34.8 457.814 34.8C464.881 34.8 471.614 35.8 478.014 37.8C484.547 39.8 487.814 42.6667 487.814 46.4C487.814 48.9333 486.814 52.2 484.814 56.2C482.814 60.2 480.947 62.2 479.214 62.2C478.681 62.2 476.681 61.5333 473.214 60.2C469.747 58.7333 465.814 58 461.414 58C454.347 58 450.814 60.4667 450.814 65.4C450.814 68.3333 452.014 70.6 454.414 72.2C456.814 73.6667 461.147 75.5333 467.414 77.8C474.347 80.3333 480.081 83.8667 484.614 88.4C489.147 92.8 491.414 99.4667 491.414 108.4C491.414 118.8 487.947 127.133 481.014 133.4C474.081 139.533 464.481 142.6 452.214 142.6ZM534.831 142.6C526.565 142.6 518.965 141.333 512.031 138.8C505.098 136.267 501.631 133 501.631 129C501.631 126.333 502.898 123.133 505.431 119.4C507.965 115.533 510.231 113.6 512.231 113.6C513.298 113.6 514.765 114.133 516.631 115.2C519.431 116.4 521.965 117.4 524.231 118.2C526.631 118.867 529.365 119.2 532.431 119.2C536.431 119.2 539.431 118.467 541.431 117C543.565 115.533 544.631 113.467 544.631 110.8C544.631 108.133 543.498 106.067 541.231 104.6C538.965 103.133 534.698 101.067 528.431 98.4C523.765 96.4 519.765 94.4 516.431 92.4C513.098 90.2667 510.165 87.2 507.631 83.2C505.231 79.0667 504.031 73.8667 504.031 67.6C504.031 57.3333 507.298 49.3333 513.831 43.6C520.365 37.7333 529.231 34.8 540.431 34.8C547.498 34.8 554.231 35.8 560.631 37.8C567.165 39.8 570.431 42.6667 570.431 46.4C570.431 48.9333 569.431 52.2 567.431 56.2C565.431 60.2 563.565 62.2 561.831 62.2C561.298 62.2 559.298 61.5333 555.831 60.2C552.365 58.7333 548.431 58 544.031 58C536.965 58 533.431 60.4667 533.431 65.4C533.431 68.3333 534.631 70.6 537.031 72.2C539.431 73.6667 543.765 75.5333 550.031 77.8C556.965 80.3333 562.698 83.8667 567.231 88.4C571.765 92.8 574.031 99.4667 574.031 108.4C574.031 118.8 570.565 127.133 563.631 133.4C556.698 139.533 547.098 142.6 534.831 142.6Z" fill="#333333"/>
</svg>
