<svg className="roundlogo-svg" viewBox="0 0 1000 1000" fill="none" xmlns="http://www.w3.org/2000/svg">
<rect width="1000" height="1000" fill="#FAFAFA"/>
<mask id="mask0" mask-type="alpha" maskUnits="userSpaceOnUse" x="0" y="0" width="1000" height="1000">
<circle cx="500" cy="500" r="500" fill="#C4C4C4"/>
</mask>
<g mask="url(#mask0)">
<path d="M500 0C570.036 8.3517e-07 639.291 14.7133 703.277 43.1868C767.264 71.6602 824.555 113.259 871.439 165.287C918.323 217.315 953.754 278.612 975.436 345.208C997.118 411.803 1004.57 482.21 997.302 551.868L500 500L500 0Z" fill="#E3E3E3"/>
<path d="M1000 500C1000 565.661 987.067 630.679 961.94 691.342C936.812 752.005 899.983 807.124 853.553 853.553C807.124 899.983 752.004 936.812 691.342 961.94C630.679 987.067 565.661 1000 500 1000L500 500H1000Z" fill="white"/>
<path d="M500 1000C429.647 1000 360.086 985.153 295.863 956.43C231.641 927.707 174.203 885.754 127.304 833.313C80.4045 780.872 45.1 719.125 23.6978 652.106C2.29557 585.087 -4.72257 514.306 3.1021 444.39L500 500L500 1000Z" fill="#E40600"/>
<path d="M0 500C1.1593e-05 367.392 52.6784 240.215 146.447 146.447C240.215 52.6784 367.392 -1.58134e-06 500 0L500 500L0 500Z" fill="#FF0400"/>
<path d="M250 66.9873C326.01 23.1031 412.232 -2.19722e-05 500 0C587.768 2.19722e-05 673.991 23.1032 750 66.9874L500 500L250 66.9873Z" fill="#BC0700"/>
<path d="M750 933.013C673.99 976.897 587.768 1000 500 1000C412.232 1000 326.009 976.897 250 933.013L500 500L750 933.013Z" fill="#BC0700"/>
</g>
</svg>
